<?xml version="1.0"?>
<svg width="512" height="512" viewBox="0 0 512 512" version="1.1" xmlns="http://www.w3.org/2000/svg" xmlns:xlink="http://www.w3.org/1999/xlink">
	<defs>
		<mask id="arc-mask">
			<rect x="0" y="0" width="512" height="512" fill="#fff"/>
			<path d="M 127,256 L 256,256 L 368,321 Z" fill="#000"/>
			<circle cx="256" cy="256" r="64" fill="#000"/>
		</mask>

		<mask id="circle-mask">
			<rect x="0" y="0" width="512" height="512" fill="#fff"/>
			<path d="M 64,288 L 256,288 L 422,384 L 448,0 L 64,0 Z" fill="#000"/>
			<circle cx="256" cy="288" r="96" fill="#000"/>
		</mask>

		<mask id="circle2-mask">
			<rect x="0" y="0" width="512" height="512" fill="#fff"/>
			<path d="M 64,320 L 240,316 L 422,412 L 448,0 L 64,0 Z" fill="#000"/>
		</mask>
	</defs>

	<g mask="url(#arc-mask)">
		<path d="M 128,256 A 128,128 0 1,1 367,320" fill="#777"/>
		<path d="M 128,256 L 96,256 L 64,224 L 256,256 Z" fill="#777"/>
		<path d="M 152,181 L 127,162 L 120,117 L 256,256 Z" fill="#777"/>
		<path d="M 216,134 L 207,104 L 228,64 L 256,256 Z" fill="#777"/>
		<path d="M 296,134 L 305,104 L 345,83 L 256,256 Z" fill="#777"/>
		<path d="M 360,181 L 385,162 L 430,169 L 256,256 Z" fill="#777"/>
		<path d="M 384,256 L 416,256 L 448,288 L 256,256 Z" fill="#777"/>
	</g>

	<g>
		<path d="M 64,288 L 256,288 L 256,320 L 64,320 Z" fill="#777"/>
		<path d="M 256,288 L 422,384 L 406,412 L 240,316 Z" fill="#777"/>
	</g>

	<circle cx="256" cy="288" r="128" fill="#777" mask="url(#circle-mask)"/>
	<circle cx="256" cy="288" r="64" fill="#777" mask="url(#circle2-mask)"/>
</svg>
