<?xml version="1.0" standalone="no"?>
<!DOCTYPE svg PUBLIC "-//W3C//DTD SVG 20010904//EN"
 "http://www.w3.org/TR/2001/REC-SVG-20010904/DTD/svg10.dtd">
<svg version="1.0" xmlns="http://www.w3.org/2000/svg"
 width="1024.000000pt" height="1024.000000pt" viewBox="0 0 1024.000000 1024.000000"
 preserveAspectRatio="xMidYMid meet">
<metadata>
Created by potrace 1.11, written by Peter Selinger 2001-2013
</metadata>
<g transform="translate(0.000000,1024.000000) scale(0.100000,-0.100000)"
fill="#000000" stroke="none">
<path d="M4775 10230 c-49 -4 -117 -10 -150 -14 -33 -4 -78 -8 -100 -11 -22
-2 -53 -6 -70 -9 -16 -2 -55 -8 -85 -11 -30 -4 -64 -9 -75 -11 -11 -3 -36 -7
-55 -10 -130 -20 -417 -87 -560 -131 -47 -15 -89 -28 -95 -29 -22 -4 -263 -88
-300 -104 -11 -5 -67 -28 -125 -51 -250 -99 -594 -281 -845 -447 -129 -85
-406 -288 -456 -333 -14 -13 -39 -35 -56 -49 -166 -137 -426 -397 -584 -585
-19 -22 -36 -42 -39 -45 -14 -13 -189 -238 -205 -265 -11 -16 -22 -32 -26 -35
-7 -6 -150 -217 -165 -245 -6 -11 -46 -78 -88 -150 -138 -232 -281 -538 -383
-815 -19 -52 -37 -102 -40 -110 -3 -8 -7 -19 -9 -25 -2 -5 -17 -55 -34 -110
-34 -108 -105 -378 -115 -435 -3 -19 -10 -51 -15 -70 -5 -19 -11 -53 -15 -75
-3 -23 -8 -52 -10 -65 -3 -14 -12 -72 -20 -130 -8 -58 -17 -118 -19 -135 -3
-16 -7 -59 -11 -95 -3 -36 -8 -85 -11 -110 -9 -81 -12 -663 -4 -750 8 -87 20
-209 25 -245 1 -11 6 -47 9 -80 8 -66 37 -238 61 -355 9 -41 17 -84 19 -95 27
-142 120 -451 209 -690 38 -105 53 -142 97 -240 32 -71 185 -381 215 -435 70
-124 147 -248 225 -365 51 -77 243 -339 265 -361 5 -6 26 -30 45 -54 173 -213
539 -575 718 -710 19 -14 39 -30 45 -36 7 -5 53 -40 102 -77 50 -37 95 -70
100 -74 86 -68 417 -273 545 -339 41 -21 82 -43 90 -49 15 -12 131 -65 355
-165 76 -34 381 -147 419 -155 6 -1 23 -7 39 -13 15 -7 40 -14 55 -17 15 -2
38 -9 52 -14 37 -15 290 -76 410 -100 178 -35 298 -54 420 -66 30 -4 71 -8 90
-10 223 -27 858 -27 997 -1 10 2 50 7 88 10 39 4 81 8 95 11 14 2 47 7 73 10
27 3 67 9 90 14 23 5 62 13 87 16 25 4 50 8 55 9 6 2 28 6 50 10 22 5 112 26
200 48 585 146 1107 378 1610 714 215 144 322 225 519 394 174 149 444 426
571 585 22 28 42 52 45 55 10 9 155 198 185 241 97 139 145 210 145 215 0 3
13 24 29 47 87 128 290 515 366 697 15 36 38 92 52 125 79 193 212 622 239
770 2 11 8 43 14 70 6 28 13 59 15 70 2 11 6 31 8 45 3 14 11 59 17 100 7 41
14 84 16 95 2 11 6 44 10 73 3 29 7 62 9 73 2 10 7 58 10 107 4 48 10 96 13
107 4 11 8 1254 9 2763 l4 2742 -2688 -2 c-1478 -1 -2728 -4 -2778 -8z"/>
</g>
</svg>
