<?xml version="1.0"?>
<svg width="1024" height="1024" viewBox="0 0 1024 1024" version="1.1" xmlns="http://www.w3.org/2000/svg" xmlns:xlink="http://www.w3.org/1999/xlink">

	<defs>
		<linearGradient id="gradient" x1="0" x2="1" y1="0" y2="1">
			<stop offset="0%" stop-color="#00C0A0"/>
			<stop offset="100%" stop-color="#3EB489"/>
		</linearGradient>

		<pattern id="pattern" x="0" y="0" width="56" height="100" patternUnits="userSpaceOnUse">
			<!-- svg pattern by lea verou -->
			<path d="M28 66L0 50L0 16L28 0L56 16L56 50L28 66L28 100" fill="none" stroke="#fff" stroke-width="2"/>
			<path d="M28 0L28 34L0 50L0 84L28 100L56 84L56 50L28 34" fill="none" stroke="#fff" stroke-width="2"/>
		</pattern>

		<mask id="mask">
			<path d="M512,0 A512,512 0 1 0 1024,512 L1024,0 Z" fill="#fff"/>
		</mask>
	</defs>

	<rect x="0" y="0" width="1024" height="1024" mask="url(#mask)" fill="url(#gradient)"/>
	<rect x="0" y="0" width="1024" height="1024" mask="url(#mask)" fill="url(#pattern)"/>
	<path d="M 427,341 V 683 V 512 A 284,284 0 0 1 597,356" fill="transparent" stroke="#fff" stroke-width="30"/>
</svg>
